<?xml version="1.0" encoding="utf-8"?>
<!-- Generator: Adobe Illustrator 27.0.0, SVG Export Plug-In . SVG Version: 6.00 Build 0)  -->
<svg version="1.1" id="Lager_1" xmlns="http://www.w3.org/2000/svg" xmlns:xlink="http://www.w3.org/1999/xlink" x="0px" y="0px"
	 viewBox="0 0 2454.52 855" style="enable-background:new 0 0 2454.52 855;" xml:space="preserve">
<style type="text/css">
	.st0{fill:#4f46e5;}
</style>
<g>
	<g>
		<path d="M322.57,613.46c-40.77,34-80.96,67.53-122.18,101.91c6.68-49.3,13.17-97.25,19.77-145.95
			c-54.5,15.77-108.26,31.33-162.02,46.88c-0.18-0.35-0.36-0.71-0.54-1.06c8.86-9.22,17.69-18.46,26.59-27.64
			c28.57-29.47,57.17-58.92,85.74-88.38c4.29-4.43,4.28-4.46-1.57-7.21c-50.04-23.45-100.09-46.9-150.14-70.36
			c-1.77-0.83-3.48-1.76-6.75-3.42C74.88,407,136.77,396.05,199.78,384.9c-39.55-45.37-78.52-90.06-118.48-135.9
			c62.63,10.21,123.75,20.17,186.25,30.35c-41.76-67.07-82.85-133.08-123.95-199.08c0.12-0.25,0.24-0.5,0.35-0.75
			c56.5,35.79,112.99,71.59,170.46,107.99c5.5-41.13,10.9-81.59,16.54-123.73c25.1,35.4,49.44,69.71,74.18,104.59
			c36.56-54.62,72.79-108.75,109.02-162.88c0.36,0.1,0.73,0.2,1.09,0.3c-0.5,9.25-0.94,18.51-1.51,27.76
			c-1.69,27.23-3.43,54.46-5.14,81.69c-0.9,14.43-1.63,28.87-2.75,43.28c-0.28,3.56,0.46,3.82,3.69,3.18
			c51.16-10.15,102.35-20.17,153.53-30.21c2.82-0.55,5.64-1.05,9.62-1.79c-26.94,49.48-53.44,98.16-80.26,147.42
			c77.76,0,154.86,0,232.66,0c-1.81,2.18-3.83,2.45-5.54,3.11c-83.51,32.32-167.03,64.63-250.61,96.8c-4.09,1.57-4.7,2.58-2.06,6.37
			c24.18,34.7,48.15,69.55,72.18,104.36c1.32,1.91,2.59,3.86,3.83,5.72c-0.98,1.74-2.39,1.11-3.49,1.04
			c-32.45-2.07-64.89-4.2-97.33-6.3c-12.98-0.84-25.97-1.5-38.94-2.52c-4.76-0.38-5.7,0.66-4.33,5.46
			c20.37,71.71,40.56,143.46,60.74,215.22c0.42,1.5,1.52,2.95,0.58,5.27c-8.32-8.06-16.49-15.93-24.61-23.85
			c-33.14-32.33-66.3-64.62-99.31-97.08c-3.15-3.1-4.2-2.89-6.3,0.92c-22.47,40.63-45.11,81.17-67.71,121.73
			c-1.22,2.19-2.48,4.37-4.42,7.78C345.9,684.85,334.4,649.65,322.57,613.46z"/>
	</g>
	<g>
		<path class="st0" d="M342.41,619.13c-40.77,34-80.96,67.53-122.18,101.91c6.68-49.3,13.17-97.25,19.77-145.95
			c-54.5,15.77-108.26,31.33-162.02,46.88c-0.18-0.35-0.36-0.71-0.54-1.06c8.86-9.22,17.69-18.46,26.59-27.64
			c28.57-29.47,57.17-58.92,85.74-88.38c4.29-4.43,4.28-4.46-1.57-7.21c-50.04-23.45-100.09-46.9-150.14-70.36
			c-1.77-0.83-3.48-1.76-6.75-3.42c63.42-11.22,125.31-22.18,188.32-33.33c-39.55-45.37-78.52-90.06-118.48-135.9
			c62.63,10.21,123.75,20.17,186.25,30.35c-41.76-67.07-82.85-133.08-123.95-199.08c0.12-0.25,0.24-0.5,0.35-0.75
			c56.5,35.79,112.99,71.59,170.46,107.99c5.5-41.13,10.9-81.59,16.54-123.73c25.1,35.4,49.44,69.71,74.18,104.59
			c36.56-54.62,72.79-108.75,109.02-162.88c0.36,0.1,0.73,0.2,1.09,0.3c-0.5,9.25-0.94,18.51-1.51,27.76
			c-1.69,27.23-3.43,54.46-5.14,81.69c-0.9,14.43-1.63,28.87-2.75,43.28c-0.28,3.56,0.46,3.82,3.69,3.18
			c51.16-10.15,102.35-20.17,153.53-30.21c2.82-0.55,5.64-1.05,9.62-1.79c-26.94,49.48-53.44,98.16-80.26,147.42
			c77.76,0,154.86,0,232.66,0c-1.81,2.18-3.83,2.45-5.54,3.11c-83.51,32.32-167.03,64.63-250.61,96.8c-4.09,1.57-4.7,2.58-2.06,6.37
			c24.18,34.7,48.15,69.55,72.18,104.36c1.32,1.91,2.59,3.86,3.83,5.72c-0.98,1.74-2.39,1.11-3.49,1.04
			c-32.45-2.07-64.89-4.2-97.33-6.3c-12.98-0.84-25.97-1.5-38.94-2.52c-4.76-0.38-5.7,0.66-4.33,5.46
			c20.37,71.71,40.56,143.46,60.74,215.22c0.42,1.5,1.52,2.95,0.58,5.27c-8.32-8.06-16.49-15.93-24.61-23.85
			c-33.14-32.33-66.3-64.62-99.31-97.08c-3.15-3.1-4.2-2.89-6.3,0.92c-22.47,40.63-45.11,81.17-67.71,121.73
			c-1.22,2.19-2.48,4.37-4.42,7.78C365.74,690.52,354.24,655.32,342.41,619.13z"/>
	</g>
</g>
<path d="M686.69,541.73h-72.22l-21.53,42.9H528l147.01-259.91h69.38l7.71,259.91h-66.61L686.69,541.73z M688.55,485.53l2.32-93.43
	l-47.52,93.43H688.55z"/>
<path d="M839.37,324.72h157.27l-14.96,55.85h-93.38l-12.16,45.39h79.76l-14.06,52.48h-79.76l-28.46,106.2h-63.89L839.37,324.72z"/>
<path d="M1030.76,324.72h170.47l-14.87,55.49h-106.72l-11.07,41.31h98.99l-14.2,53.01h-98.99l-13.73,51.24h109.81l-15.77,58.86
	H961.11L1030.76,324.72z"/>
<path d="M1224.11,324.72h193.35l-17.2,64.18h-64.87l-52.45,195.73h-63.61l52.45-195.73h-64.87L1224.11,324.72z"/>
<path d="M1377.45,584.63l69.64-259.91h106.01c19.66,0,34.11,2.13,43.36,6.38c9.25,4.26,15.51,12.15,18.79,23.67
	c3.28,11.52,2.7,25.56-1.73,42.11c-3.87,14.42-9.63,26.86-17.31,37.32c-7.67,10.46-16.64,18.94-26.91,25.44
	c-6.54,4.14-14.91,7.56-25.09,10.28c6.72,3.2,11.38,6.39,13.99,9.58c1.77,2.13,3.94,6.68,6.51,13.67c2.57,6.98,4.1,12.36,4.58,16.15
	l10.62,75.31h-71.87l-12.72-79.43c-1.55-10.28-3.6-16.96-6.15-20.03c-3.51-4.02-8.17-6.03-13.97-6.03h-5.62l-28.27,105.49H1377.45z
	 M1482.76,430.03h26.82c2.9,0,8.83-1.18,17.8-3.55c4.5-1.06,8.67-3.78,12.51-8.16c3.84-4.37,6.52-9.4,8.04-15.07
	c2.25-8.39,1.87-14.83-1.14-19.33c-3.01-4.49-10.32-6.74-21.93-6.74h-27.94L1482.76,430.03z"/>
<path d="M1738.34,541.73h-72.21l-21.53,42.9h-64.95l147.01-259.91h69.38l7.71,259.91h-66.61L1738.34,541.73z M1740.2,485.53
	l2.32-93.43L1695,485.53H1740.2z"/>
<path d="M1984.34,478.26l50.04,21.28c-9.03,19.74-19.35,36.23-30.95,49.46c-11.6,13.24-24.27,23.22-38.01,29.96
	c-13.74,6.74-29.83,10.11-48.27,10.11c-22.37,0-39.55-4.11-51.53-12.31c-11.98-8.21-20.36-22.65-25.11-43.32
	c-4.76-20.67-2.82-47.13,5.82-79.38c11.52-42.99,29.43-76.04,53.73-99.13c24.3-23.09,53.02-34.64,86.16-34.64
	c25.93,0,44.54,6.62,55.83,19.86c11.29,13.24,16.86,33.57,16.73,60.99l-60.39,15.78c0.16-7.92-0.35-13.71-1.52-17.37
	c-1.91-6.14-5-10.87-9.26-14.18c-4.26-3.31-9.58-4.96-15.94-4.96c-14.42,0-27.42,7.32-39.02,21.96
	c-8.72,10.86-16.19,27.92-22.42,51.17c-7.72,28.81-9.55,48.55-5.48,59.24c4.06,10.68,12.37,16.03,24.91,16.03
	c12.17,0,22.52-4.31,31.06-12.94C1969.26,507.22,1977.13,494.69,1984.34,478.26z"/>
<path d="M2112.4,324.72h63.61l-26.32,98.22l92.95-98.22h84.6l-101.41,98.1l35.13,161.81h-78.33l-14.76-106.89l-44.51,43.46
	l-16.99,63.42h-63.61L2112.4,324.72z"/>
<g>
	<rect x="237.33" y="667.05" width="2124.51" height="117"/>
</g>
<path d="M619.68,128.17c9.12,13.58,15.95,29.42,20.16,45.72c3.51,13.57,4.77,27.94,5.28,42.05c0.29,7.88,0.33,15.49-0.49,22.93
	c0.14,1.71,0,3.41-0.42,5.11c-0.03,0.29-0.07,0.57-0.1,0.86h1717.73V128.17H619.68z"/>
<g>
	<path class="st0" d="M2300.25,142.18c7.7,0,15.08,1.92,22.15,5.77c7.07,3.85,12.63,9.37,16.67,16.55
		c4.04,7.19,6.06,14.71,6.06,22.56c0,7.81-1.98,15.26-5.95,22.35c-3.96,7.09-9.49,12.62-16.58,16.58s-14.54,5.95-22.35,5.95
		c-7.81,0-15.26-1.98-22.35-5.95s-12.62-9.49-16.58-16.58c-3.96-7.09-5.95-14.54-5.95-22.35c0-7.85,2.02-15.37,6.06-22.56
		c4.04-7.19,9.6-12.7,16.67-16.55C2285.18,144.11,2292.56,142.18,2300.25,142.18z M2300.31,150.97c-6.17,0-12.09,1.54-17.75,4.63
		c-5.66,3.09-10.13,7.52-13.39,13.3c-3.26,5.78-4.89,11.84-4.89,18.16c0,6.29,1.59,12.29,4.78,17.99
		c3.18,5.7,7.63,10.16,13.33,13.36c5.7,3.2,11.68,4.8,17.93,4.8c6.29,0,12.28-1.6,17.96-4.8c5.68-3.2,10.13-7.66,13.33-13.36
		c3.2-5.7,4.8-11.7,4.8-17.99c0-6.33-1.63-12.38-4.89-18.16c-3.26-5.78-7.73-10.21-13.42-13.3
		C2312.41,152.51,2306.49,150.97,2300.31,150.97z M2279.98,211.09v-47.64h9.67c9.06,0,14.14,0.04,15.23,0.12
		c3.2,0.27,5.69,0.91,7.47,1.9c1.78,1,3.26,2.52,4.45,4.57c1.19,2.05,1.79,4.33,1.79,6.83c0,3.44-1.12,6.38-3.37,8.82
		c-2.25,2.44-5.4,3.96-9.46,4.54c1.44,0.55,2.56,1.14,3.34,1.79c0.78,0.64,1.85,1.87,3.22,3.66c0.35,0.47,1.52,2.4,3.52,5.8
		l5.62,9.61h-11.95l-3.98-7.73c-2.7-5.19-4.92-8.47-6.68-9.81s-3.98-2.02-6.68-2.02h-2.52v19.57H2279.98z M2289.65,184.02h3.93
		c5.59,0,9.05-0.21,10.4-0.64c1.35-0.43,2.41-1.18,3.19-2.26c0.78-1.07,1.17-2.29,1.17-3.66c0-1.33-0.38-2.51-1.14-3.54
		c-0.76-1.03-1.85-1.78-3.25-2.23c-1.41-0.45-4.86-0.67-10.37-0.67h-3.93V184.02z"/>
</g>
<g>
	<path d="M247.82,429.81l104.97-8.32c-3.52,21.58-3.37,38.02,0.46,49.32c6.25,18.29,19.72,27.43,40.38,27.43
		c15.42,0,28.54-4.67,39.38-14.03c10.83-9.35,17.89-20.19,21.17-32.52c3.12-11.71,1.93-22.2-3.55-31.44
		c-5.49-9.25-21.6-17.98-48.34-26.2c-43.7-13.77-72.61-32.06-86.72-54.87c-14.28-22.81-16.71-51.89-7.3-87.24
		c6.18-23.22,17.23-45.16,33.13-65.81c15.91-20.65,35.88-36.88,59.93-48.7c24.04-11.82,54.27-17.73,90.67-17.73
		c44.66,0,75.86,10.74,93.59,32.21c17.73,21.48,22.58,55.64,14.56,102.5l-103.86,7.71c2.71-20.35,0.97-35.14-5.23-44.39
		c-6.2-9.25-16.93-13.87-32.19-13.87c-12.56,0-22.93,3.44-31.12,10.33c-8.19,6.89-13.6,15.26-16.22,25.12
		c-1.92,7.2-1.02,13.67,2.7,19.42c3.5,5.96,14.1,11.51,31.81,16.65c43.71,13.15,73.98,26.46,90.82,39.92
		c16.84,13.46,27.26,30.16,31.25,50.09c3.99,19.94,2.71,42.23-3.86,66.89c-7.71,28.98-21.02,55.69-39.93,80.15
		c-18.91,24.46-41.17,43-66.79,55.64c-25.62,12.64-55.35,18.96-89.21,18.96c-59.45,0-96.67-14.8-111.69-44.39
		C241.64,513.04,238.69,475.43,247.82,429.81z"/>
</g>
</svg>
